<?xml version="1.0" encoding="utf-8"?>
<!-- Generator: Adobe Illustrator 17.0.0, SVG Export Plug-In . SVG Version: 6.00 Build 0)  -->
<!DOCTYPE svg PUBLIC "-//W3C//DTD SVG 1.1//EN" "http://www.w3.org/Graphics/SVG/1.1/DTD/svg11.dtd">
<svg version="1.1" id="Layer_1" xmlns="http://www.w3.org/2000/svg" xmlns:xlink="http://www.w3.org/1999/xlink" x="0px" y="0px"
	 width="283.465px" height="82.148px" viewBox="0 100.658 283.465 82.148" enable-background="new 0 100.658 283.465 82.148"
	 xml:space="preserve">
<g id="Слой_x0020_1">
	<g id="_237933144">
		<path fill="#0077A0" d="M40.337,101.282v43.143c0,3.798-1.247,6.945-3.713,9.354c-2.409,2.353-5.386,3.6-8.986,3.6h-8.447
			l13.72,7.002c9.468-1.928,16.753-9.553,16.753-20.239v-42.888h-9.354L40.337,101.282z M67.521,101.282h-9.609v9.496h9.609V101.282
			z M67.493,118.913h-9.156v44.079h9.156V118.913z M99.694,133.257v3.855H75.118v-3.855H99.694z M111.827,118.261h10.658v3.855
			h-10.658v32.145c0,2.948,2.268,5.443,5.244,5.443h5.414v3.855h-5.953c-4.904,0-9.213-3.997-9.213-8.929v-32.485h-3.883v-3.855
			h3.883v-9.071h4.479v9.071L111.827,118.261z M129.231,148.082v-14.995c0-4.535,1.417-8.589,5.017-11.452
			c3.628-2.891,7.965-4.025,12.557-4.025c4.592,0,8.929,1.134,12.557,4.025c3.6,2.863,5.017,6.917,5.017,11.452v14.995
			c0,4.507-1.446,8.561-5.017,11.452c-3.6,2.92-7.994,4.025-12.557,4.025c-9.581,0-17.575-5.187-17.575-15.449V148.082z
			 M159.902,147.997v-14.91c0-7.994-5.726-11.509-13.181-11.509c-7.455,0-13.011,3.572-13.011,11.509v14.91
			c0,7.965,5.613,11.594,13.096,11.594C154.29,159.591,159.902,155.962,159.902,147.997z M200.693,158.74
			c-3.855,2.126-9.411,4.791-13.805,4.791c-4.195,0-8.107-1.162-11.169-4.11c-2.92-2.806-4.309-6.236-4.309-10.29v-30.898h4.309
			v30.614c0,6.69,5.556,10.8,11.962,10.8c4.252,0,9.014-2.183,12.671-4.224v-37.191h4.479v44.504h-4.025l-0.085-3.997H200.693z
			 M212.854,149.046v-17.008c0-5.017,2.239-8.986,6.491-11.594c3.061-1.871,7.143-2.976,10.743-2.976
			c3.855,0,7.71,0.51,11.509,1.247l0.17,0.028l-0.198,3.77l-0.255-0.057c-3.487-0.709-7.058-1.134-10.63-1.134
			c-6.52,0-13.351,3.572-13.351,10.885v16.583c0,7.427,6.746,10.885,13.351,10.885c3.572,0,7.115-0.425,10.63-1.134l0.255-0.057
			l0.198,3.855l-0.17,0.028c-3.855,0.737-7.767,1.162-11.679,1.162c-3.543,0-7.597-1.134-10.602-3.005
			c-4.195-2.608-6.435-6.52-6.435-11.48H212.854z M254.551,119.083c4.025-0.964,8.164-1.531,12.302-1.531
			c8.816,0,16.611,4.791,16.611,14.4v30.813h-4.309v-30.614c0-7.398-6.973-10.715-13.465-10.715c-3.657,0-7.569,0.198-11.169,0.935
			v40.422h-4.479v-62.135h4.479v18.454L254.551,119.083z"/>
		<polygon fill="#EF7F1A" points="27.581,167.783 0,153.723 10.602,182.806 15.477,171.156 		"/>
	</g>
</g>
</svg>
