<svg width="458" height="265" viewBox="0 0 458 265" fill="none" xmlns="http://www.w3.org/2000/svg">
<rect width="457.719" height="264.93" fill="white"/>
<path d="M17.0806 15C16.4869 14.999 16.003 15.4766 16 16.0677C16 16.6557 16.4839 17.1343 17.0806 17.1343C17.6764 17.1343 18.1592 16.6557 18.1592 16.0677C18.1592 15.4787 17.6764 15 17.0806 15ZM17.0806 52.9775C16.4859 52.9764 16.003 53.4541 16 54.0461C16 54.6351 16.4839 55.1128 17.0806 55.1128C17.6764 55.1128 18.1592 54.6351 18.1592 54.0461C18.1592 53.4551 17.6764 52.9775 17.0806 52.9775ZM17.0806 90.9549C16.4849 90.9549 16 91.4325 16 92.0226C16 92.6106 16.4839 93.0882 17.0806 93.0882C17.6764 93.0882 18.1592 92.6106 18.1592 92.0226C18.1592 91.4325 17.6764 90.9549 17.0806 90.9549ZM17.0806 128.933C16.4849 128.933 16 129.411 16 130C16 130.589 16.4839 131.067 17.0806 131.067C17.6764 131.067 18.1592 130.589 18.1592 130C18.1592 129.411 17.6764 128.933 17.0806 128.933ZM17.0806 166.911C16.4849 166.911 16 167.388 16 167.977C16 168.567 16.4839 169.045 17.0806 169.045C17.6764 169.045 18.1592 168.567 18.1592 167.977C18.1592 167.388 17.6764 166.911 17.0806 166.911ZM17.0806 204.888C16.4849 204.888 16 205.366 16 205.955C16 206.545 16.4839 207.023 17.0806 207.023C17.6764 207.023 18.1592 206.545 18.1592 205.955C18.1592 205.366 17.6764 204.888 17.0806 204.888ZM17.0806 242.866C16.4849 242.866 16 243.343 16 243.932C16 244.522 16.4839 245 17.0806 245C17.6764 245 18.1592 244.522 18.1592 243.932C18.1592 243.343 17.6764 242.866 17.0806 242.866ZM55.5203 15C54.9236 15 54.4397 15.4787 54.4397 16.0677C54.4397 16.6557 54.9236 17.1343 55.5203 17.1343C56.1151 17.1343 56.5999 16.6557 56.5999 16.0677C56.5979 15.4766 56.1151 14.998 55.5203 15ZM55.5203 52.9775C54.9236 52.9775 54.4397 53.4561 54.4397 54.0461C54.4397 54.6351 54.9236 55.1128 55.5203 55.1128C56.1151 55.1128 56.5999 54.6351 56.5999 54.0461C56.5989 53.4551 56.1161 52.9764 55.5223 52.9775C55.5213 52.9775 55.5213 52.9775 55.5203 52.9775ZM55.5203 90.9549C54.9236 90.9549 54.4397 91.4325 54.4397 92.0226C54.4397 92.6106 54.9236 93.0882 55.5203 93.0882C56.1151 93.0882 56.5999 92.6106 56.5999 92.0226C56.5979 91.4315 56.1151 90.9529 55.5203 90.9549ZM55.5203 128.933C54.9236 128.933 54.4397 129.411 54.4397 130C54.4397 130.589 54.9236 131.067 55.5203 131.067C56.1151 131.067 56.5999 130.589 56.5999 130C56.5979 129.409 56.1141 128.931 55.5203 128.933ZM55.5203 166.911C54.9236 166.911 54.4397 167.388 54.4397 167.977C54.4397 168.567 54.9236 169.045 55.5203 169.045C56.1151 169.045 56.5999 168.567 56.5999 167.977C56.5979 167.386 56.1141 166.909 55.5203 166.911ZM55.5203 204.888C54.9236 204.888 54.4397 205.366 54.4397 205.955C54.4397 206.545 54.9236 207.023 55.5203 207.023C56.1151 207.023 56.5999 206.545 56.5999 205.955C56.5999 205.366 56.1161 204.888 55.5203 204.888ZM55.5203 242.866C54.9236 242.866 54.4397 243.343 54.4397 243.932C54.4397 244.522 54.9236 245 55.5203 245C56.1151 245 56.5999 244.522 56.5999 243.932C56.5979 243.341 56.1141 242.864 55.5203 242.866ZM93.959 15C93.3653 14.999 92.8814 15.4766 92.8784 16.0677C92.8784 16.6557 93.3623 17.1343 93.959 17.1343C94.5558 17.1343 95.0386 16.6557 95.0386 16.0677C95.0386 15.4787 94.5548 15 93.959 15ZM93.959 52.9775C93.3643 52.9764 92.8814 53.4541 92.8784 54.0461C92.8784 54.6351 93.3623 55.1128 93.959 55.1128C94.5558 55.1128 95.0386 54.6351 95.0386 54.0461C95.0386 53.4551 94.5548 52.9775 93.959 52.9775ZM93.959 90.9549C93.3633 90.9549 92.8784 91.4325 92.8784 92.0226C92.8784 92.6106 93.3623 93.0882 93.959 93.0882C94.5558 93.0882 95.0386 92.6106 95.0386 92.0226C95.0386 91.4325 94.5548 90.9549 93.959 90.9549ZM93.959 128.933C93.3633 128.933 92.8784 129.411 92.8784 130C92.8784 130.589 93.3623 131.067 93.959 131.067C94.5558 131.067 95.0386 130.589 95.0386 130C95.0386 129.411 94.5548 128.933 93.959 128.933ZM93.959 166.911C93.3633 166.911 92.8784 167.388 92.8784 167.977C92.8784 168.567 93.3623 169.045 93.959 169.045C94.5558 169.045 95.0386 168.567 95.0386 167.977C95.0386 167.388 94.5548 166.911 93.959 166.911ZM93.959 204.888C93.3633 204.888 92.8784 205.366 92.8784 205.955C92.8784 206.545 93.3623 207.023 93.959 207.023C94.5558 207.023 95.0386 206.545 95.0386 205.955C95.0386 205.366 94.5548 204.888 93.959 204.888ZM93.959 242.866C93.3633 242.866 92.8784 243.343 92.8784 243.932C92.8784 244.522 93.3623 245 93.959 245C94.5558 245 95.0386 244.522 95.0386 243.932C95.0386 243.343 94.5548 242.866 93.959 242.866ZM132.4 15C131.803 15 131.319 15.4787 131.319 16.0677C131.319 16.6557 131.803 17.1343 132.4 17.1343C132.995 17.1343 133.479 16.6557 133.479 16.0677C133.477 15.4766 132.994 14.998 132.4 15ZM132.4 52.9775C131.803 52.9775 131.319 53.4561 131.319 54.0461C131.319 54.6351 131.803 55.1128 132.4 55.1128C132.995 55.1128 133.479 54.6351 133.479 54.0461C133.478 53.4551 132.997 52.9764 132.404 52.9775C132.403 52.9775 132.401 52.9775 132.4 52.9775ZM132.4 90.9549C131.803 90.9549 131.319 91.4325 131.319 92.0226C131.319 92.6106 131.803 93.0882 132.4 93.0882C132.995 93.0882 133.479 92.6106 133.479 92.0226C133.478 91.4315 132.996 90.9539 132.403 90.9549C132.402 90.9549 132.401 90.9549 132.4 90.9549ZM132.4 128.933C131.803 128.933 131.319 129.411 131.319 130C131.319 130.589 131.803 131.067 132.4 131.067C132.995 131.067 133.479 130.589 133.479 130C133.477 129.409 132.995 128.931 132.402 128.933C132.401 128.933 132.401 128.933 132.4 128.933ZM132.4 166.911C131.803 166.911 131.319 167.388 131.319 167.977C131.319 168.567 131.803 169.045 132.4 169.045C132.995 169.045 133.479 168.567 133.479 167.977C133.477 167.386 132.995 166.909 132.402 166.911C132.401 166.911 132.401 166.911 132.4 166.911ZM132.4 204.888C131.803 204.888 131.319 205.366 131.319 205.955C131.319 206.545 131.803 207.023 132.4 207.023C132.995 207.023 133.479 206.545 133.479 205.955C133.479 205.366 132.996 204.888 132.4 204.888ZM132.4 242.866C131.803 242.866 131.319 243.343 131.319 243.932C131.319 244.522 131.803 245 132.4 245C132.995 245 133.479 244.522 133.479 243.932C133.477 243.341 132.995 242.864 132.402 242.866C132.401 242.866 132.401 242.866 132.4 242.866ZM170.839 15C170.246 14.999 169.762 15.4766 169.759 16.0677C169.759 16.6557 170.244 17.1343 170.839 17.1343C171.436 17.1343 171.919 16.6557 171.919 16.0677C171.919 15.4787 171.436 15 170.839 15ZM170.839 52.9775C170.245 52.9764 169.762 53.4541 169.759 54.0461C169.759 54.6351 170.244 55.1128 170.839 55.1128C171.436 55.1128 171.919 54.6351 171.919 54.0461C171.919 53.4551 171.436 52.9775 170.839 52.9775ZM170.839 90.9549C170.244 90.9549 169.759 91.4325 169.759 92.0226C169.759 92.6106 170.244 93.0882 170.839 93.0882C171.436 93.0882 171.919 92.6106 171.919 92.0226C171.919 91.4325 171.436 90.9549 170.839 90.9549ZM170.839 128.933C170.244 128.933 169.759 129.411 169.759 130C169.759 130.589 170.244 131.067 170.839 131.067C171.436 131.067 171.919 130.589 171.919 130C171.919 129.411 171.436 128.933 170.839 128.933ZM170.839 166.911C170.244 166.911 169.759 167.388 169.759 167.977C169.759 168.567 170.244 169.045 170.839 169.045C171.436 169.045 171.919 168.567 171.919 167.977C171.919 167.388 171.436 166.911 170.839 166.911ZM170.839 204.888C170.244 204.888 169.759 205.366 169.759 205.955C169.759 206.545 170.244 207.023 170.839 207.023C171.436 207.023 171.919 206.545 171.919 205.955C171.919 205.366 171.436 204.888 170.839 204.888ZM170.839 242.866C170.244 242.866 169.759 243.343 169.759 243.932C169.759 244.522 170.244 245 170.839 245C171.436 245 171.919 244.522 171.919 243.932C171.919 243.343 171.436 242.866 170.839 242.866ZM209.281 15C208.684 15 208.202 15.4787 208.202 16.0677C208.202 16.6557 208.684 17.1343 209.281 17.1343C209.877 17.1343 210.361 16.6557 210.361 16.0677C210.361 15.4787 209.877 15 209.281 15ZM209.281 52.9775C208.684 52.9775 208.202 53.4561 208.202 54.0461C208.202 54.6351 208.684 55.1128 209.281 55.1128C209.877 55.1128 210.361 54.6351 210.361 54.0461C210.361 53.4551 209.877 52.9775 209.281 52.9775ZM209.281 90.9549C208.684 90.9549 208.202 91.4325 208.202 92.0226C208.202 92.6106 208.684 93.0882 209.281 93.0882C209.877 93.0882 210.361 92.6106 210.361 92.0226C210.361 91.4325 209.877 90.9549 209.281 90.9549ZM209.281 128.933C208.684 128.933 208.202 129.411 208.202 130C208.202 130.589 208.684 131.067 209.281 131.067C209.877 131.067 210.361 130.589 210.361 130C210.361 129.411 209.877 128.933 209.281 128.933ZM209.281 166.911C208.684 166.911 208.202 167.388 208.202 167.977C208.202 168.567 208.684 169.045 209.281 169.045C209.877 169.045 210.361 168.567 210.361 167.977C210.361 167.388 209.877 166.911 209.281 166.911ZM209.281 204.888C208.684 204.888 208.202 205.366 208.202 205.955C208.202 206.545 208.684 207.023 209.281 207.023C209.877 207.023 210.361 206.545 210.361 205.955C210.361 205.366 209.877 204.888 209.281 204.888ZM209.281 242.866C208.684 242.866 208.202 243.343 208.202 243.932C208.202 244.522 208.684 245 209.281 245C209.877 245 210.361 244.522 210.361 243.932C210.361 243.343 209.877 242.866 209.281 242.866ZM247.72 15C247.124 15 246.64 15.4787 246.64 16.0677C246.64 16.6557 247.124 17.1343 247.72 17.1343C248.317 17.1343 248.799 16.6557 248.799 16.0677C248.799 15.4787 248.317 15 247.72 15ZM247.72 52.9775C247.124 52.9775 246.64 53.4561 246.64 54.0461C246.64 54.6351 247.124 55.1128 247.72 55.1128C248.317 55.1128 248.799 54.6351 248.799 54.0461C248.799 53.4551 248.317 52.9775 247.72 52.9775ZM247.72 90.9549C247.124 90.9549 246.64 91.4325 246.64 92.0226C246.64 92.6106 247.124 93.0882 247.72 93.0882C248.317 93.0882 248.799 92.6106 248.799 92.0226C248.799 91.4325 248.317 90.9549 247.72 90.9549ZM247.72 128.933C247.124 128.933 246.64 129.411 246.64 130C246.64 130.589 247.124 131.067 247.72 131.067C248.317 131.067 248.799 130.589 248.799 130C248.799 129.411 248.317 128.933 247.72 128.933ZM247.72 166.911C247.124 166.911 246.64 167.388 246.64 167.977C246.64 168.567 247.124 169.045 247.72 169.045C248.317 169.045 248.799 168.567 248.799 167.977C248.799 167.388 248.317 166.911 247.72 166.911ZM247.72 204.888C247.124 204.888 246.64 205.366 246.64 205.955C246.64 206.545 247.124 207.023 247.72 207.023C248.317 207.023 248.799 206.545 248.799 205.955C248.799 205.366 248.317 204.888 247.72 204.888ZM247.72 242.866C247.124 242.866 246.64 243.343 246.64 243.932C246.64 244.522 247.124 245 247.72 245C248.317 245 248.799 244.522 248.799 243.932C248.799 243.343 248.317 242.866 247.72 242.866ZM286.161 15C285.564 15 285.081 15.4787 285.081 16.0677C285.081 16.6557 285.564 17.1343 286.161 17.1343C286.756 17.1343 287.241 16.6557 287.241 16.0677C287.238 15.4766 286.754 14.999 286.161 15ZM286.161 52.9775C285.564 52.9775 285.081 53.4561 285.081 54.0461C285.081 54.6351 285.564 55.1128 286.161 55.1128C286.756 55.1128 287.241 54.6351 287.241 54.0461C287.241 53.4551 286.756 52.9775 286.161 52.9775ZM286.161 90.9549C285.564 90.9549 285.081 91.4325 285.081 92.0226C285.081 92.6106 285.564 93.0882 286.161 93.0882C286.756 93.0882 287.241 92.6106 287.241 92.0226C287.241 91.4325 286.756 90.9549 286.161 90.9549ZM286.161 128.933C285.564 128.933 285.081 129.411 285.081 130C285.081 130.589 285.564 131.067 286.161 131.067C286.756 131.067 287.241 130.589 287.241 130C287.241 129.411 286.756 128.933 286.161 128.933ZM286.161 166.911C285.564 166.911 285.081 167.388 285.081 167.977C285.081 168.567 285.564 169.045 286.161 169.045C286.756 169.045 287.241 168.567 287.241 167.977C287.241 167.388 286.756 166.911 286.161 166.911ZM286.161 204.888C285.564 204.888 285.081 205.366 285.081 205.955C285.081 206.545 285.564 207.023 286.161 207.023C286.756 207.023 287.241 206.545 287.241 205.955C287.241 205.366 286.756 204.888 286.161 204.888ZM286.161 242.866C285.564 242.866 285.081 243.343 285.081 243.932C285.081 244.522 285.564 245 286.161 245C286.756 245 287.241 244.522 287.241 243.932C287.241 243.343 286.756 242.866 286.161 242.866ZM324.599 15C324.003 15 323.52 15.4787 323.52 16.0677C323.52 16.6557 324.003 17.1343 324.599 17.1343C325.196 17.1343 325.68 16.6557 325.68 16.0677C325.68 15.4787 325.196 15 324.599 15ZM324.599 52.9775C324.003 52.9775 323.52 53.4561 323.52 54.0461C323.52 54.6351 324.003 55.1128 324.599 55.1128C325.196 55.1128 325.68 54.6351 325.68 54.0461C325.68 53.4551 325.196 52.9775 324.599 52.9775ZM324.599 90.9549C324.003 90.9549 323.52 91.4325 323.52 92.0226C323.52 92.6106 324.003 93.0882 324.599 93.0882C325.196 93.0882 325.68 92.6106 325.68 92.0226C325.68 91.4325 325.196 90.9549 324.599 90.9549ZM324.599 128.933C324.003 128.933 323.52 129.411 323.52 130C323.52 130.589 324.003 131.067 324.599 131.067C325.196 131.067 325.68 130.589 325.68 130C325.68 129.411 325.196 128.933 324.599 128.933ZM324.599 166.911C324.003 166.911 323.52 167.388 323.52 167.977C323.52 168.567 324.003 169.045 324.599 169.045C325.196 169.045 325.68 168.567 325.68 167.977C325.68 167.388 325.196 166.911 324.599 166.911ZM324.599 204.888C324.003 204.888 323.52 205.366 323.52 205.955C323.52 206.545 324.003 207.023 324.599 207.023C325.196 207.023 325.68 206.545 325.68 205.955C325.68 205.366 325.196 204.888 324.599 204.888ZM324.599 242.866C324.003 242.866 323.52 243.343 323.52 243.932C323.52 244.522 324.003 245 324.599 245C325.196 245 325.68 244.522 325.68 243.932C325.68 243.343 325.196 242.866 324.599 242.866ZM363.04 15C362.443 15 361.96 15.4787 361.96 16.0677C361.96 16.6557 362.443 17.1343 363.04 17.1343C363.636 17.1343 364.121 16.6557 364.121 16.0677C364.118 15.4766 363.634 14.999 363.04 15ZM363.04 52.9775C362.443 52.9775 361.96 53.4561 361.96 54.0461C361.96 54.6351 362.443 55.1128 363.04 55.1128C363.636 55.1128 364.121 54.6351 364.121 54.0461C364.121 53.4551 363.636 52.9775 363.04 52.9775ZM363.04 90.9549C362.443 90.9549 361.96 91.4325 361.96 92.0226C361.96 92.6106 362.443 93.0882 363.04 93.0882C363.636 93.0882 364.121 92.6106 364.121 92.0226C364.121 91.4325 363.636 90.9549 363.04 90.9549ZM363.04 128.933C362.443 128.933 361.96 129.411 361.96 130C361.96 130.589 362.443 131.067 363.04 131.067C363.636 131.067 364.121 130.589 364.121 130C364.121 129.411 363.636 128.933 363.04 128.933ZM363.04 166.911C362.443 166.911 361.96 167.388 361.96 167.977C361.96 168.567 362.443 169.045 363.04 169.045C363.636 169.045 364.121 168.567 364.121 167.977C364.121 167.388 363.636 166.911 363.04 166.911ZM363.04 204.888C362.443 204.888 361.96 205.366 361.96 205.955C361.96 206.545 362.443 207.023 363.04 207.023C363.636 207.023 364.121 206.545 364.121 205.955C364.121 205.366 363.636 204.888 363.04 204.888ZM363.04 242.866C362.443 242.866 361.96 243.343 361.96 243.932C361.96 244.522 362.443 245 363.04 245C363.636 245 364.121 244.522 364.121 243.932C364.121 243.343 363.636 242.866 363.04 242.866ZM401.479 15C400.884 15 400.399 15.4787 400.399 16.0677C400.399 16.6557 400.884 17.1343 401.479 17.1343C402.075 17.1343 402.559 16.6557 402.559 16.0677C402.557 15.4766 402.074 14.998 401.481 15C401.48 15 401.48 15 401.479 15ZM401.479 52.9775C400.885 52.9764 400.402 53.4551 400.399 54.0461C400.399 54.6351 400.884 55.1128 401.479 55.1128C402.075 55.1128 402.559 54.6351 402.559 54.0461C402.558 53.4551 402.075 52.9764 401.482 52.9775C401.481 52.9775 401.48 52.9775 401.479 52.9775ZM401.479 90.9549C400.884 90.9549 400.399 91.4325 400.399 92.0226C400.399 92.6106 400.884 93.0882 401.479 93.0882C402.075 93.0882 402.559 92.6106 402.559 92.0226C402.558 91.4315 402.076 90.9539 401.483 90.9549C401.482 90.9549 401.48 90.9549 401.479 90.9549ZM401.479 128.933C400.884 128.933 400.399 129.411 400.399 130C400.399 130.589 400.884 131.067 401.479 131.067C402.075 131.067 402.559 130.589 402.559 130C402.557 129.409 402.075 128.931 401.482 128.933C401.481 128.933 401.48 128.933 401.479 128.933ZM401.479 166.911C400.884 166.911 400.399 167.388 400.399 167.977C400.399 168.567 400.884 169.045 401.479 169.045C402.075 169.045 402.559 168.567 402.559 167.977C402.557 167.386 402.075 166.909 401.482 166.911C401.481 166.911 401.48 166.911 401.479 166.911ZM401.479 204.888C400.884 204.888 400.399 205.366 400.399 205.955C400.399 206.545 400.884 207.023 401.479 207.023C402.075 207.023 402.559 206.545 402.559 205.955C402.559 205.366 402.076 204.888 401.479 204.888ZM401.479 242.866C400.884 242.866 400.399 243.343 400.399 243.932C400.399 244.522 400.884 245 401.479 245C402.075 245 402.559 244.522 402.559 243.932C402.557 243.341 402.075 242.864 401.482 242.866C401.481 242.866 401.48 242.866 401.479 242.866ZM439.92 15C439.324 15 438.84 15.4787 438.84 16.0677C438.84 16.6557 439.324 17.1343 439.92 17.1343C440.515 17.1343 441 16.6557 441 16.0677C441 15.4787 440.515 15 439.92 15ZM439.92 52.9775C439.324 52.9775 438.84 53.4561 438.84 54.0461C438.84 54.6351 439.324 55.1128 439.92 55.1128C440.515 55.1128 441 54.6351 441 54.0461C441 53.4551 440.515 52.9775 439.92 52.9775ZM439.92 90.9549C439.324 90.9549 438.84 91.4325 438.84 92.0226C438.84 92.6106 439.324 93.0882 439.92 93.0882C440.515 93.0882 441 92.6106 441 92.0226C441 91.4325 440.515 90.9549 439.92 90.9549ZM439.92 128.933C439.324 128.933 438.84 129.411 438.84 130C438.84 130.589 439.324 131.067 439.92 131.067C440.515 131.067 441 130.589 441 130C441 129.411 440.515 128.933 439.92 128.933ZM439.92 166.911C439.324 166.911 438.84 167.388 438.84 167.977C438.84 168.567 439.324 169.045 439.92 169.045C440.515 169.045 441 168.567 441 167.977C441 167.388 440.515 166.911 439.92 166.911ZM439.92 204.888C439.324 204.888 438.84 205.366 438.84 205.955C438.84 206.545 439.324 207.023 439.92 207.023C440.515 207.023 441 206.545 441 205.955C441 205.366 440.515 204.888 439.92 204.888ZM439.92 242.866C439.324 242.866 438.84 243.343 438.84 243.932C438.84 244.522 439.324 245 439.92 245C440.515 245 441 244.522 441 243.932C441 243.343 440.515 242.866 439.92 242.866Z" fill="#CAE1E8"/>
</svg>
