<?xml version="1.0" encoding="utf-8"?>
<!-- Generator: Adobe Illustrator 17.0.0, SVG Export Plug-In . SVG Version: 6.00 Build 0)  -->
<!DOCTYPE svg PUBLIC "-//W3C//DTD SVG 1.1//EN" "http://www.w3.org/Graphics/SVG/1.1/DTD/svg11.dtd">
<svg version="1.1" id="Layer_1" xmlns="http://www.w3.org/2000/svg" xmlns:xlink="http://www.w3.org/1999/xlink" x="0px" y="0px"
	 width="457.719px" height="264.93px" viewBox="0 0 457.719 264.93" enable-background="new 0 0 457.719 264.93"
	 xml:space="preserve">
<path fill="#CAE1E8" d="M1.205,0.847C0.616,0.846,0.136,1.322,0.133,1.911c0,0.586,0.48,1.063,1.072,1.063
	c0.591,0,1.07-0.477,1.07-1.063C2.275,1.324,1.796,0.847,1.205,0.847z M1.205,38.694c-0.59-0.001-1.069,0.475-1.072,1.065
	c0,0.587,0.48,1.063,1.072,1.063c0.591,0,1.07-0.476,1.07-1.063C2.275,39.17,1.796,38.694,1.205,38.694z M1.205,76.541
	c-0.591,0-1.072,0.476-1.072,1.064c0,0.586,0.48,1.062,1.072,1.062c0.591,0,1.07-0.476,1.07-1.062
	C2.275,77.017,1.796,76.541,1.205,76.541z M1.205,114.389c-0.591,0-1.072,0.476-1.072,1.063s0.48,1.063,1.072,1.063
	c0.591,0,1.07-0.476,1.07-1.063S1.796,114.389,1.205,114.389z M1.205,152.236c-0.591,0-1.072,0.476-1.072,1.063
	c0,0.588,0.48,1.064,1.072,1.064c0.591,0,1.07-0.476,1.07-1.064C2.275,152.712,1.796,152.236,1.205,152.236z M1.205,190.083
	c-0.591,0-1.072,0.476-1.072,1.063c0,0.588,0.48,1.064,1.072,1.064c0.591,0,1.07-0.476,1.07-1.064
	C2.275,190.559,1.796,190.083,1.205,190.083z M1.205,227.93c-0.591,0-1.072,0.476-1.072,1.063c0,0.588,0.48,1.064,1.072,1.064
	c0.591,0,1.07-0.476,1.07-1.064C2.275,228.406,1.796,227.93,1.205,227.93z M39.338,0.847c-0.592,0-1.072,0.477-1.072,1.064
	c0,0.586,0.48,1.063,1.072,1.063c0.59,0,1.071-0.477,1.071-1.063C40.407,1.322,39.928,0.845,39.338,0.847L39.338,0.847z
	 M39.338,38.694c-0.592,0-1.072,0.477-1.072,1.065c0,0.587,0.48,1.063,1.072,1.063c0.59,0,1.071-0.476,1.071-1.063
	c-0.001-0.589-0.48-1.066-1.069-1.065C39.339,38.694,39.339,38.694,39.338,38.694z M39.338,76.541c-0.592,0-1.072,0.476-1.072,1.064
	c0,0.586,0.48,1.062,1.072,1.062c0.59,0,1.071-0.476,1.071-1.062C40.407,77.016,39.928,76.539,39.338,76.541L39.338,76.541z
	 M39.338,114.389c-0.592,0-1.072,0.476-1.072,1.063s0.48,1.063,1.072,1.063c0.59,0,1.071-0.476,1.071-1.063
	C40.407,114.863,39.927,114.387,39.338,114.389L39.338,114.389z M39.338,152.236c-0.592,0-1.072,0.476-1.072,1.063
	c0,0.588,0.48,1.064,1.072,1.064c0.59,0,1.071-0.476,1.071-1.064C40.407,152.71,39.927,152.234,39.338,152.236L39.338,152.236z
	 M39.338,190.083c-0.592,0-1.072,0.476-1.072,1.063c0,0.588,0.48,1.064,1.072,1.064c0.59,0,1.071-0.476,1.071-1.064
	C40.409,190.559,39.929,190.083,39.338,190.083z M39.338,227.93c-0.592,0-1.072,0.476-1.072,1.063c0,0.588,0.48,1.064,1.072,1.064
	c0.59,0,1.071-0.476,1.071-1.064C40.407,228.404,39.927,227.928,39.338,227.93L39.338,227.93z M77.47,0.847
	c-0.589-0.001-1.069,0.475-1.072,1.064c0,0.586,0.48,1.063,1.072,1.063c0.592,0,1.071-0.477,1.071-1.063
	C78.541,1.324,78.061,0.847,77.47,0.847z M77.47,38.694c-0.59-0.001-1.069,0.475-1.072,1.065c0,0.587,0.48,1.063,1.072,1.063
	c0.592,0,1.071-0.476,1.071-1.063C78.541,39.17,78.061,38.694,77.47,38.694z M77.47,76.541c-0.591,0-1.072,0.476-1.072,1.064
	c0,0.586,0.48,1.062,1.072,1.062c0.592,0,1.071-0.476,1.071-1.062C78.541,77.017,78.061,76.541,77.47,76.541z M77.47,114.389
	c-0.591,0-1.072,0.476-1.072,1.063s0.48,1.063,1.072,1.063c0.592,0,1.071-0.476,1.071-1.063S78.061,114.389,77.47,114.389z
	 M77.47,152.236c-0.591,0-1.072,0.476-1.072,1.063c0,0.588,0.48,1.064,1.072,1.064c0.592,0,1.071-0.476,1.071-1.064
	C78.541,152.712,78.061,152.236,77.47,152.236z M77.47,190.083c-0.591,0-1.072,0.476-1.072,1.063c0,0.588,0.48,1.064,1.072,1.064
	c0.592,0,1.071-0.476,1.071-1.064C78.541,190.559,78.061,190.083,77.47,190.083z M77.47,227.93c-0.591,0-1.072,0.476-1.072,1.063
	c0,0.588,0.48,1.064,1.072,1.064c0.592,0,1.071-0.476,1.071-1.064C78.541,228.406,78.061,227.93,77.47,227.93z M115.604,0.847
	c-0.592,0-1.072,0.477-1.072,1.064c0,0.586,0.48,1.063,1.072,1.063c0.591,0,1.071-0.477,1.071-1.063
	C116.673,1.322,116.194,0.845,115.604,0.847C115.605,0.847,115.604,0.847,115.604,0.847z M115.604,38.694
	c-0.592,0-1.072,0.477-1.072,1.065c0,0.587,0.48,1.063,1.072,1.063c0.591,0,1.071-0.476,1.071-1.063
	c-0.001-0.589-0.478-1.066-1.067-1.065C115.607,38.694,115.605,38.694,115.604,38.694z M115.604,76.541
	c-0.592,0-1.072,0.476-1.072,1.064c0,0.586,0.48,1.062,1.072,1.062c0.591,0,1.071-0.476,1.071-1.062
	c-0.001-0.589-0.479-1.065-1.068-1.064C115.606,76.541,115.605,76.541,115.604,76.541z M115.604,114.389
	c-0.592,0-1.072,0.476-1.072,1.063s0.48,1.063,1.072,1.063c0.591,0,1.071-0.476,1.071-1.063c-0.002-0.589-0.48-1.065-1.069-1.063
	C115.605,114.389,115.605,114.389,115.604,114.389z M115.604,152.236c-0.592,0-1.072,0.476-1.072,1.063
	c0,0.588,0.48,1.064,1.072,1.064c0.591,0,1.071-0.476,1.071-1.064c-0.002-0.589-0.48-1.065-1.069-1.063
	C115.605,152.236,115.605,152.236,115.604,152.236z M115.604,190.083c-0.592,0-1.072,0.476-1.072,1.063
	c0,0.588,0.48,1.064,1.072,1.064c0.591,0,1.071-0.476,1.071-1.064C116.675,190.559,116.196,190.083,115.604,190.083z
	 M115.604,227.93c-0.592,0-1.072,0.476-1.072,1.063c0,0.588,0.48,1.064,1.072,1.064c0.591,0,1.071-0.476,1.071-1.064
	c-0.002-0.589-0.48-1.065-1.069-1.063C115.605,227.93,115.605,227.93,115.604,227.93z M153.737,0.847
	c-0.589-0.001-1.069,0.475-1.072,1.064c0,0.586,0.481,1.063,1.072,1.063c0.592,0,1.071-0.477,1.071-1.063
	C154.808,1.324,154.329,0.847,153.737,0.847z M153.737,38.694c-0.59-0.001-1.069,0.475-1.072,1.065c0,0.587,0.481,1.063,1.072,1.063
	c0.592,0,1.071-0.476,1.071-1.063C154.808,39.17,154.329,38.694,153.737,38.694z M153.737,76.541c-0.591,0-1.072,0.476-1.072,1.064
	c0,0.586,0.481,1.062,1.072,1.062c0.592,0,1.071-0.476,1.071-1.062C154.808,77.017,154.329,76.541,153.737,76.541z M153.737,114.389
	c-0.591,0-1.072,0.476-1.072,1.063s0.481,1.063,1.072,1.063c0.592,0,1.071-0.476,1.071-1.063S154.329,114.389,153.737,114.389z
	 M153.737,152.236c-0.591,0-1.072,0.476-1.072,1.063c0,0.588,0.481,1.064,1.072,1.064c0.592,0,1.071-0.476,1.071-1.064
	C154.808,152.712,154.329,152.236,153.737,152.236z M153.737,190.083c-0.591,0-1.072,0.476-1.072,1.063
	c0,0.588,0.481,1.064,1.072,1.064c0.592,0,1.071-0.476,1.071-1.064C154.808,190.559,154.329,190.083,153.737,190.083z
	 M153.737,227.93c-0.591,0-1.072,0.476-1.072,1.063c0,0.588,0.481,1.064,1.072,1.064c0.592,0,1.071-0.476,1.071-1.064
	C154.808,228.406,154.329,227.93,153.737,227.93z M191.872,0.847c-0.592,0-1.071,0.477-1.071,1.064c0,0.586,0.479,1.063,1.071,1.063
	c0.591,0,1.071-0.477,1.071-1.063C192.943,1.324,192.463,0.847,191.872,0.847z M191.872,38.694c-0.592,0-1.071,0.477-1.071,1.065
	c0,0.587,0.479,1.063,1.071,1.063c0.591,0,1.071-0.476,1.071-1.063C192.943,39.17,192.463,38.694,191.872,38.694z M191.872,76.541
	c-0.592,0-1.071,0.476-1.071,1.064c0,0.586,0.479,1.062,1.071,1.062c0.591,0,1.071-0.476,1.071-1.062
	C192.943,77.017,192.463,76.541,191.872,76.541z M191.872,114.389c-0.592,0-1.071,0.476-1.071,1.063s0.479,1.063,1.071,1.063
	c0.591,0,1.071-0.476,1.071-1.063S192.463,114.389,191.872,114.389z M191.872,152.236c-0.592,0-1.071,0.476-1.071,1.063
	c0,0.588,0.479,1.064,1.071,1.064c0.591,0,1.071-0.476,1.071-1.064C192.943,152.712,192.463,152.236,191.872,152.236z
	 M191.872,190.083c-0.592,0-1.071,0.476-1.071,1.063c0,0.588,0.479,1.064,1.071,1.064c0.591,0,1.071-0.476,1.071-1.064
	C192.943,190.559,192.463,190.083,191.872,190.083z M191.872,227.93c-0.592,0-1.071,0.476-1.071,1.063
	c0,0.588,0.479,1.064,1.071,1.064c0.591,0,1.071-0.476,1.071-1.064C192.943,228.406,192.463,227.93,191.872,227.93z M230.004,0.847
	c-0.591,0-1.071,0.477-1.071,1.064c0,0.586,0.48,1.063,1.071,1.063c0.592,0,1.071-0.477,1.071-1.063
	C231.075,1.324,230.596,0.847,230.004,0.847z M230.004,38.694c-0.591,0-1.071,0.477-1.071,1.065c0,0.587,0.48,1.063,1.071,1.063
	c0.592,0,1.071-0.476,1.071-1.063C231.075,39.17,230.596,38.694,230.004,38.694z M230.004,76.541c-0.591,0-1.071,0.476-1.071,1.064
	c0,0.586,0.48,1.062,1.071,1.062c0.592,0,1.071-0.476,1.071-1.062C231.075,77.017,230.596,76.541,230.004,76.541z M230.004,114.389
	c-0.591,0-1.071,0.476-1.071,1.063s0.48,1.063,1.071,1.063c0.592,0,1.071-0.476,1.071-1.063S230.596,114.389,230.004,114.389z
	 M230.004,152.236c-0.591,0-1.071,0.476-1.071,1.063c0,0.588,0.48,1.064,1.071,1.064c0.592,0,1.071-0.476,1.071-1.064
	C231.075,152.712,230.596,152.236,230.004,152.236z M230.004,190.083c-0.591,0-1.071,0.476-1.071,1.063
	c0,0.588,0.48,1.064,1.071,1.064c0.592,0,1.071-0.476,1.071-1.064C231.075,190.559,230.596,190.083,230.004,190.083z
	 M230.004,227.93c-0.591,0-1.071,0.476-1.071,1.063c0,0.588,0.48,1.064,1.071,1.064c0.592,0,1.071-0.476,1.071-1.064
	C231.075,228.406,230.596,227.93,230.004,227.93z M268.138,0.847c-0.592,0-1.071,0.477-1.071,1.064c0,0.586,0.479,1.063,1.071,1.063
	c0.591,0,1.072-0.477,1.072-1.063C269.207,1.322,268.727,0.846,268.138,0.847z M268.138,38.694c-0.592,0-1.071,0.477-1.071,1.065
	c0,0.587,0.479,1.063,1.071,1.063c0.591,0,1.072-0.476,1.072-1.063C269.21,39.17,268.729,38.694,268.138,38.694z M268.138,76.541
	c-0.592,0-1.071,0.476-1.071,1.064c0,0.586,0.479,1.062,1.071,1.062c0.591,0,1.072-0.476,1.072-1.062
	C269.21,77.017,268.729,76.541,268.138,76.541z M268.138,114.389c-0.592,0-1.071,0.476-1.071,1.063s0.479,1.063,1.071,1.063
	c0.591,0,1.072-0.476,1.072-1.063S268.729,114.389,268.138,114.389z M268.138,152.236c-0.592,0-1.071,0.476-1.071,1.063
	c0,0.588,0.479,1.064,1.071,1.064c0.591,0,1.072-0.476,1.072-1.064C269.21,152.712,268.729,152.236,268.138,152.236z
	 M268.138,190.083c-0.592,0-1.071,0.476-1.071,1.063c0,0.588,0.479,1.064,1.071,1.064c0.591,0,1.072-0.476,1.072-1.064
	C269.21,190.559,268.729,190.083,268.138,190.083z M268.138,227.93c-0.592,0-1.071,0.476-1.071,1.063
	c0,0.588,0.479,1.064,1.071,1.064c0.591,0,1.072-0.476,1.072-1.064C269.21,228.406,268.729,227.93,268.138,227.93z M306.27,0.847
	c-0.591,0-1.071,0.477-1.071,1.064c0,0.586,0.48,1.063,1.071,1.063c0.592,0,1.072-0.477,1.072-1.063
	C307.342,1.324,306.862,0.847,306.27,0.847z M306.27,38.694c-0.591,0-1.071,0.477-1.071,1.065c0,0.587,0.48,1.063,1.071,1.063
	c0.592,0,1.072-0.476,1.072-1.063C307.342,39.17,306.862,38.694,306.27,38.694z M306.27,76.541c-0.591,0-1.071,0.476-1.071,1.064
	c0,0.586,0.48,1.062,1.071,1.062c0.592,0,1.072-0.476,1.072-1.062C307.342,77.017,306.862,76.541,306.27,76.541z M306.27,114.389
	c-0.591,0-1.071,0.476-1.071,1.063s0.48,1.063,1.071,1.063c0.592,0,1.072-0.476,1.072-1.063S306.862,114.389,306.27,114.389z
	 M306.27,152.236c-0.591,0-1.071,0.476-1.071,1.063c0,0.588,0.48,1.064,1.071,1.064c0.592,0,1.072-0.476,1.072-1.064
	C307.342,152.712,306.862,152.236,306.27,152.236z M306.27,190.083c-0.591,0-1.071,0.476-1.071,1.063
	c0,0.588,0.48,1.064,1.071,1.064c0.592,0,1.072-0.476,1.072-1.064C307.342,190.559,306.862,190.083,306.27,190.083z M306.27,227.93
	c-0.591,0-1.071,0.476-1.071,1.063c0,0.588,0.48,1.064,1.071,1.064c0.592,0,1.072-0.476,1.072-1.064
	C307.342,228.406,306.862,227.93,306.27,227.93z M344.404,0.847c-0.592,0-1.071,0.477-1.071,1.064c0,0.586,0.479,1.063,1.071,1.063
	c0.591,0,1.072-0.477,1.072-1.063C345.473,1.322,344.993,0.846,344.404,0.847z M344.404,38.694c-0.592,0-1.071,0.477-1.071,1.065
	c0,0.587,0.479,1.063,1.071,1.063c0.591,0,1.072-0.476,1.072-1.063C345.476,39.17,344.995,38.694,344.404,38.694z M344.404,76.541
	c-0.592,0-1.071,0.476-1.071,1.064c0,0.586,0.479,1.062,1.071,1.062c0.591,0,1.072-0.476,1.072-1.062
	C345.476,77.017,344.995,76.541,344.404,76.541z M344.404,114.389c-0.592,0-1.071,0.476-1.071,1.063s0.479,1.063,1.071,1.063
	c0.591,0,1.072-0.476,1.072-1.063S344.995,114.389,344.404,114.389z M344.404,152.236c-0.592,0-1.071,0.476-1.071,1.063
	c0,0.588,0.479,1.064,1.071,1.064c0.591,0,1.072-0.476,1.072-1.064C345.476,152.712,344.995,152.236,344.404,152.236z
	 M344.404,190.083c-0.592,0-1.071,0.476-1.071,1.063c0,0.588,0.479,1.064,1.071,1.064c0.591,0,1.072-0.476,1.072-1.064
	C345.476,190.559,344.995,190.083,344.404,190.083z M344.404,227.93c-0.592,0-1.071,0.476-1.071,1.063
	c0,0.588,0.479,1.064,1.071,1.064c0.591,0,1.072-0.476,1.072-1.064C345.476,228.406,344.995,227.93,344.404,227.93z M382.536,0.847
	c-0.59,0-1.071,0.477-1.071,1.064c0,0.586,0.481,1.063,1.071,1.063c0.592,0,1.072-0.477,1.072-1.063
	c-0.002-0.589-0.481-1.066-1.07-1.064C382.537,0.847,382.537,0.847,382.536,0.847z M382.536,38.694
	c-0.589-0.001-1.068,0.476-1.071,1.065c0,0.587,0.481,1.063,1.071,1.063c0.592,0,1.072-0.476,1.072-1.063
	c-0.001-0.589-0.48-1.066-1.069-1.065C382.538,38.694,382.537,38.694,382.536,38.694z M382.536,76.541
	c-0.59,0-1.071,0.476-1.071,1.064c0,0.586,0.481,1.062,1.071,1.062c0.592,0,1.072-0.476,1.072-1.062
	c-0.001-0.589-0.479-1.065-1.068-1.064C382.539,76.541,382.537,76.541,382.536,76.541z M382.536,114.389
	c-0.59,0-1.071,0.476-1.071,1.063s0.481,1.063,1.071,1.063c0.592,0,1.072-0.476,1.072-1.063c-0.002-0.589-0.48-1.065-1.069-1.063
	C382.538,114.389,382.537,114.389,382.536,114.389z M382.536,152.236c-0.59,0-1.071,0.476-1.071,1.063
	c0,0.588,0.481,1.064,1.071,1.064c0.592,0,1.072-0.476,1.072-1.064c-0.002-0.589-0.48-1.065-1.069-1.063
	C382.538,152.236,382.537,152.236,382.536,152.236z M382.536,190.083c-0.59,0-1.071,0.476-1.071,1.063
	c0,0.588,0.481,1.064,1.071,1.064c0.592,0,1.072-0.476,1.072-1.064C383.608,190.559,383.129,190.083,382.536,190.083z
	 M382.536,227.93c-0.59,0-1.071,0.476-1.071,1.063c0,0.588,0.481,1.064,1.071,1.064c0.592,0,1.072-0.476,1.072-1.064
	c-0.002-0.589-0.48-1.065-1.069-1.063C382.538,227.93,382.537,227.93,382.536,227.93z M420.671,0.847
	c-0.592,0-1.072,0.477-1.072,1.064c0,0.586,0.48,1.063,1.072,1.063c0.59,0,1.071-0.477,1.071-1.063
	C421.742,1.324,421.261,0.847,420.671,0.847z M420.671,38.694c-0.592,0-1.072,0.477-1.072,1.065c0,0.587,0.48,1.063,1.072,1.063
	c0.59,0,1.071-0.476,1.071-1.063C421.742,39.17,421.261,38.694,420.671,38.694z M420.671,76.541c-0.592,0-1.072,0.476-1.072,1.064
	c0,0.586,0.48,1.062,1.072,1.062c0.59,0,1.071-0.476,1.071-1.062C421.742,77.017,421.261,76.541,420.671,76.541z M420.671,114.389
	c-0.592,0-1.072,0.476-1.072,1.063s0.48,1.063,1.072,1.063c0.59,0,1.071-0.476,1.071-1.063S421.261,114.389,420.671,114.389z
	 M420.671,152.236c-0.592,0-1.072,0.476-1.072,1.063c0,0.588,0.48,1.064,1.072,1.064c0.59,0,1.071-0.476,1.071-1.064
	C421.742,152.712,421.261,152.236,420.671,152.236z M420.671,190.083c-0.592,0-1.072,0.476-1.072,1.063
	c0,0.588,0.48,1.064,1.072,1.064c0.59,0,1.071-0.476,1.071-1.064C421.742,190.559,421.261,190.083,420.671,190.083z M420.671,227.93
	c-0.592,0-1.072,0.476-1.072,1.063c0,0.588,0.48,1.064,1.072,1.064c0.59,0,1.071-0.476,1.071-1.064
	C421.742,228.406,421.261,227.93,420.671,227.93z"/>
</svg>
