<?xml version="1.0" encoding="UTF-8"?>
<!DOCTYPE svg PUBLIC "-//W3C//DTD SVG 1.1//EN" "http://www.w3.org/Graphics/SVG/1.1/DTD/svg11.dtd">
<!-- Creator: CorelDRAW X6 -->
<svg xmlns="http://www.w3.org/2000/svg" xml:space="preserve" width="1240px" height="354px" version="1.1" shape-rendering="geometricPrecision" text-rendering="geometricPrecision" image-rendering="optimizeQuality" fill-rule="evenodd" clip-rule="evenodd"
viewBox="0 0 1240 354"
 xmlns:xlink="http://www.w3.org/1999/xlink">
 <g id="Слой_x0020_1">
  <metadata id="CorelCorpID_0Corel-Layer"/>
  <g id="_435205808">
   <path fill="#0878A1" d="M672 79c17,-4 35,-7 53,-7 38,0 71,21 71,62l0 133 -19 0 0 -132c0,-32 -30,-46 -58,-46 -16,0 -33,1 -48,4l0 174 -19 0 0 -267 19 0 0 79 0 0z"/>
   <path fill="#0878A1" d="M493 208l0 -73c0,-22 10,-39 28,-50 13,-8 31,-13 46,-13 17,0 33,2 50,5l1 0 -1 16 -1 0c-15,-3 -30,-5 -46,-5 -28,0 -58,15 -58,47l0 71c0,32 29,47 58,47 15,0 31,-2 46,-5l1 0 1 17 -1 0c-17,3 -33,5 -50,5 -15,0 -33,-5 -46,-13 -18,-11 -28,-28 -28,-49z"/>
   <path fill="#0878A1" d="M440 250c-17,9 -40,21 -59,21 -18,0 -35,-5 -48,-18 -13,-12 -19,-27 -19,-44l0 -133 19 0 0 132c0,29 24,47 51,47 18,0 39,-9 55,-18l0 -160 19 0 0 192 -17 0 0 -17 0 0z"/>
   <path fill="#0878A1" d="M133 204l0 -64c0,-20 6,-37 22,-49 16,-12 34,-17 54,-17 20,0 38,5 54,17 15,12 22,30 22,49l0 64c0,19 -6,37 -22,49 -15,13 -34,17 -54,17 -41,0 -76,-22 -76,-67l0 0zm132 0l0 -64c0,-34 -25,-50 -57,-50 -32,0 -56,15 -56,50l0 64c0,34 24,50 56,50 32,0 56,-16 56,-50z"/>
   <path fill="#0878A1" d="M58 76l46 0 0 17 -46 0 0 138c0,13 10,23 23,23l23 0 0 17 -26 0c-21,0 -40,-17 -40,-39l0 -140 -17 0 0 -17 17 0 0 -39 19 0 0 39 0 0z"/>
   <polygon fill="#EF7F1A" points="950,289 831,228 877,354 898,303 "/>
   <path fill="#727371" fill-rule="nonzero" d="M978 272l62 -178 0 -16 -108 0 0 20 82 0 -61 174 25 0zm79 3c8,0 16,-7 16,-16 0,-8 -7,-15 -16,-15 -8,0 -15,7 -15,15 0,9 7,16 15,16zm100 1c45,0 61,-54 61,-101 0,-47 -15,-100 -61,-100 -45,0 -61,53 -61,100 0,47 15,101 61,101zm0 -21c-30,0 -37,-42 -37,-80 0,-38 7,-80 37,-80 30,0 37,41 37,80 0,38 -7,80 -37,80z"/>
  </g>
 </g>
</svg>
